<svg width="700" height="700" viewBox="0 0 700 700" fill="none" xmlns="http://www.w3.org/2000/svg">
    <path
        d="M258 305H444V469C444 524.228 399.228 569 344 569H338C293.817 569 258 533.183 258 489V305Z"
        fill="#F43F5E" />
    <path d="M539 134.049C483.295 156.598 444 211.21 444 275V134H539V134.049Z" fill="#F43F5E" />
    <path d="M258 305H444V275V134H429C334.559 134 258 210.559 258 305Z" fill="#F43F5E" />
    <path
        d="M258 305H444M258 305V489C258 533.183 293.817 569 338 569H344C399.228 569 444 524.228 444 469V305M258 305C258 210.559 334.559 134 429 134H444M444 305V275M444 134V275M444 134H539V134.049C483.295 156.598 444 211.21 444 275"
        stroke="#F43F5E" />
    <path d="M25 305H211V469C211 524.228 166.228 569 111 569H105C60.8172 569 25 533.183 25 489V305Z"
        fill="#EAB308" />
    <path d="M25 305C25 210.559 101.559 131 196 131H211C211 198.951 211 237.049 211 305H25Z"
        fill="#EAB308" />
    <path d="M306 131.049C250.295 153.598 211 208.21 211 272V131H306V131.049Z" fill="#EAB308" />
    <path d="M25 305H211V469C211 524.228 166.228 569 111 569H105C60.8172 569 25 533.183 25 489V305Z"
        fill="#EAB308" />
    <path d="M25 305C25 210.559 101.559 131 196 131H211C211 198.951 211 237.049 211 305H25Z"
        fill="#EAB308" />
    <path d="M306 131.049C250.295 153.598 211 208.21 211 272V131H306V131.049Z" fill="#EAB308" />
    <path d="M25 305H211V469C211 524.228 166.228 569 111 569H105C60.8172 569 25 533.183 25 489V305Z"
        fill="#EAB308" />
    <path d="M25 305C25 210.559 101.559 131 196 131H211C211 198.951 211 237.049 211 305H25Z"
        fill="#EAB308" />
    <path d="M306 131.049C250.295 153.598 211 208.21 211 272V131H306V131.049Z" fill="#EAB308" />
    <path d="M25 305H211V469C211 524.228 166.228 569 111 569H105C60.8172 569 25 533.183 25 489V305Z"
        fill="#EAB308" />
    <path d="M25 305C25 210.559 101.559 131 196 131H211C211 198.951 211 237.049 211 305H25Z"
        fill="#EAB308" />
    <path d="M306 131.049C250.295 153.598 211 208.21 211 272V131H306V131.049Z" fill="#EAB308" />
    <path d="M25 305H211V469C211 524.228 166.228 569 111 569H105C60.8172 569 25 533.183 25 489V305Z"
        fill="#EAB308" />
    <path d="M25 305C25 210.559 101.559 131 196 131H211C211 198.951 211 237.049 211 305H25Z"
        fill="#EAB308" />
    <path d="M306 131.049C250.295 153.598 211 208.21 211 272V131H306V131.049Z" fill="#EAB308" />
    <path d="M25 305H211V469C211 524.228 166.228 569 111 569H105C60.8172 569 25 533.183 25 489V305Z"
        fill="#EAB308" />
    <path d="M25 305C25 210.559 101.559 131 196 131H211C211 198.951 211 237.049 211 305H25Z"
        fill="#EAB308" />
    <path d="M306 131.049C250.295 153.598 211 208.21 211 272V131H306V131.049Z" fill="#EAB308" />
    <path d="M25 305H211V469C211 524.228 166.228 569 111 569H105C60.8172 569 25 533.183 25 489V305Z"
        fill="#EAB308" />
    <path d="M25 305C25 210.559 101.559 131 196 131H211C211 198.951 211 237.049 211 305H25Z"
        fill="#EAB308" />
    <path d="M306 131.049C250.295 153.598 211 208.21 211 272V131H306V131.049Z" fill="#EAB308" />
    <path d="M25 305H211V469C211 524.228 166.228 569 111 569H105C60.8172 569 25 533.183 25 489V305Z"
        fill="#EAB308" />
    <path d="M25 305C25 210.559 101.559 131 196 131H211C211 198.951 211 237.049 211 305H25Z"
        fill="#EAB308" />
    <path d="M306 131.049C250.295 153.598 211 208.21 211 272V131H306V131.049Z" fill="#EAB308" />
    <path
        d="M25 305H211M25 305V489C25 533.183 60.8172 569 105 569H111C166.228 569 211 524.228 211 469V305M25 305C25 210.559 101.559 131 196 131H211M211 305C211 237.049 211 198.951 211 131M211 131V272C211 208.21 250.295 153.598 306 131.049V131H211Z"
        stroke="#EAB308" />
    <path
        d="M489.5 261C489.5 209.638 531.138 168 582.5 168C633.862 168 675.5 209.638 675.5 261V476C675.5 527.362 633.862 569 582.5 569C531.138 569 489.5 527.362 489.5 476V261Z"
        fill="#A855F7" stroke="#A855F7" />
</svg>